<?xml version="1.0" encoding="utf-8"?>
<svg xmlns="http://www.w3.org/2000/svg" xmlns:xlink="http://www.w3.org/1999/xlink" version="1.1" id="Layer_2" x="0px" y="0px" viewBox="0 0 74.8 58.5" style="enable-background:new 0 0 74.8 58.5;">
<style type="text/css">
	.Arched_x0020_Green{fill:url(#SVGID_1_);stroke:#FFFFFF;stroke-width:0.25;stroke-miterlimit:1;}
	.st0{fill-rule:evenodd;clip-rule:evenodd;fill:#EB5332;}
	.st1{fill-rule:evenodd;clip-rule:evenodd;fill:#B7D03D;}
	.st2{fill-rule:evenodd;clip-rule:evenodd;fill:#00A9DD;}
	.st3{fill-rule:evenodd;clip-rule:evenodd;fill:#E32642;}
</style>
<linearGradient id="SVGID_1_" gradientUnits="userSpaceOnUse" x1="370.5" y1="324.9916" x2="371.2071" y2="324.2845">
	<stop offset="0" style="stop-color:#1EAB4B"/>
	<stop offset="0.9831" style="stop-color:#19361A"/>
</linearGradient>
<g>
	<path d="M7.8,45.8l-1.4-5.1h0.3c0.8,0,1.4-0.1,1.8-0.3c0.5-0.3,0.8-0.8,1-1.5c0.1-0.3,0.1-0.5,0-0.7c0-0.2-0.1-0.4-0.2-0.6&#xD;&#xA;		c-0.1-0.2-0.3-0.3-0.5-0.4c-0.2-0.1-0.4-0.1-0.7-0.1h-1l-1.9,8.7H2.4l1.9-9c0.1-0.3,0.2-0.5,0.4-0.7C5,36,5.3,35.9,5.5,35.9h4.1&#xD;&#xA;		c0.9,0,1.6,0.3,2.2,0.8c0.6,0.6,0.9,1.3,0.7,2.2c-0.1,0.7-0.5,1.3-1.1,1.8c-0.5,0.5-1.1,0.8-1.9,0.9l1.5,4.2H7.8z M15.9,45.7&#xD;&#xA;		c-0.2,0.1-0.4,0.1-0.6,0.1c-0.4,0-0.8-0.1-1.2-0.2c-0.4-0.1-0.7-0.3-1-0.5c-0.3-0.2-0.5-0.5-0.6-0.8c-0.1-0.3-0.1-0.7,0-1.2&#xD;&#xA;		c0.1-0.3,0.2-0.5,0.3-0.8c0.2-0.2,0.3-0.4,0.6-0.6c0.2-0.2,0.5-0.3,0.8-0.5c0.3-0.1,0.6-0.3,0.9-0.4c0.3-0.1,0.5-0.1,0.7-0.2&#xD;&#xA;		c0.2,0,0.4-0.1,0.6-0.1c0.2,0,0.4-0.1,0.5-0.1c0.2,0,0.3-0.1,0.5-0.1c-0.2-0.4-0.5-0.5-1-0.5h-2.4c-0.4,0-0.5-0.2-0.4-0.7&#xD;&#xA;		c0-0.2,0.1-0.3,0.3-0.5c0.1-0.1,0.3-0.2,0.5-0.2H17c2.5,0,3.6,1.1,3.1,3.3l-0.8,3.9c0,0,0,0-0.1,0c-0.1,0-0.2,0-0.4,0&#xD;&#xA;		c-0.2,0-0.5,0-0.8,0c-0.4,0-0.9,0-1.5,0l0.1-0.4C16.3,45.6,16.1,45.7,15.9,45.7z M16.7,41.2c-0.2,0.1-0.4,0.1-0.6,0.2&#xD;&#xA;		c-0.1,0.1-0.3,0.1-0.4,0.2c-0.1,0.1-0.2,0.2-0.3,0.3c-0.1,0.2-0.2,0.3-0.3,0.5c-0.1,0.2-0.2,0.5-0.3,0.8c0,0.2-0.1,0.4,0,0.6&#xD;&#xA;		c0,0.2,0.1,0.4,0.2,0.5c0.1,0.1,0.2,0.3,0.4,0.4c0.2,0.1,0.4,0.1,0.6,0.1c0.1,0,0.2,0,0.3-0.1c0.1-0.1,0.2-0.2,0.4-0.3l0.7-3.4&#xD;&#xA;		C17.2,41.1,16.9,41.1,16.7,41.2z M24.6,39.1c0.2-0.1,0.3-0.2,0.5-0.3c0.2-0.1,0.3-0.1,0.5-0.2c0.2,0,0.3-0.1,0.4-0.1&#xD;&#xA;		c0.1,0,0.2,0,0.3,0c0.6,0,1.1,0.1,1.5,0.2c0.4,0.1,0.7,0.3,1,0.5c0.2,0.2,0.4,0.5,0.5,0.8c0.1,0.3,0.1,0.7,0.1,1.1c0,0,0,0.1,0,0.1&#xD;&#xA;		c0,0,0,0.1,0,0.2c0,0.1,0,0.2-0.1,0.3c0,0.1-0.1,0.3-0.1,0.6c-0.1,0.3-0.1,0.6-0.2,1c-0.1,0.4-0.2,0.9-0.3,1.5&#xD;&#xA;		c0,0.2-0.1,0.3-0.2,0.4c-0.1,0.1-0.2,0.2-0.4,0.3c-0.1,0.1-0.3,0.1-0.5,0.2c-0.2,0-0.3,0.1-0.5,0.1c-0.2,0-0.3,0-0.5-0.1&#xD;&#xA;		c-0.2,0-0.3-0.1-0.4-0.2c-0.1-0.1-0.2-0.2-0.3-0.3c-0.1-0.1-0.1-0.3,0-0.4l0.6-2.6c0.1-0.5,0.2-0.9,0.2-1.2c0-0.3,0-0.6,0-0.8&#xD;&#xA;		c-0.1-0.2-0.2-0.3-0.3-0.4c-0.1-0.1-0.3-0.1-0.6-0.1c0,0-0.1,0-0.2,0c-0.1,0-0.2,0-0.4,0.1c-0.1,0-0.3,0.1-0.5,0.2&#xD;&#xA;		c-0.2,0.1-0.3,0.2-0.4,0.4l-1.2,5.3l-2.8,0l1.6-7.3h2.8L24.6,39.1z M37.8,46c-0.3,1.4-0.8,2.3-1.5,2.9c-0.7,0.6-1.7,0.8-3.1,0.8&#xD;&#xA;		h-3.4l0.3-1.4h2.9c0.2,0,0.4,0,0.6,0c0.2,0,0.3-0.1,0.5-0.1c0.1-0.1,0.3-0.2,0.4-0.4c0.1-0.2,0.2-0.5,0.3-0.8c0-0.1,0-0.2,0.1-0.4&#xD;&#xA;		c0-0.2,0.1-0.4,0.2-0.7l-2.3,0c-0.6,0-1.1-0.1-1.4-0.3c-0.3-0.2-0.6-0.4-0.8-0.8c-0.2-0.3-0.2-0.7-0.2-1.1c0-0.4,0.1-0.9,0.2-1.3&#xD;&#xA;		c0.1-0.6,0.3-1,0.5-1.5c0.2-0.4,0.5-0.8,0.8-1.1c0.3-0.3,0.7-0.5,1.2-0.7c0.5-0.2,1-0.2,1.6-0.2h3.8c0.2,0,0.4,0.1,0.6,0.3&#xD;&#xA;		c0.1,0.2,0.2,0.4,0.1,0.6L37.8,46z M36.3,40h-0.9c-0.5,0-0.9,0.1-1.2,0.4c-0.1,0.1-0.2,0.2-0.3,0.3c-0.1,0.2-0.2,0.3-0.2,0.5&#xD;&#xA;		c-0.1,0.2-0.1,0.4-0.2,0.6c-0.1,0.2-0.1,0.3-0.1,0.5c0,0.1-0.1,0.2-0.1,0.4c0,0.2,0,0.4,0,0.6c0,0.2,0,0.4,0,0.5&#xD;&#xA;		c0,0.2,0,0.3,0.1,0.3c0.1,0.1,0.1,0.1,0.2,0.2c0.1,0,0.2,0.1,0.3,0.1c0.1,0,0.3,0,0.6,0c0.2,0,0.5,0,0.9,0L36.3,40z M61.4,44.6&#xD;&#xA;		c-1.1,0.9-2.3,1.3-3.8,1.3h-4.8l1.9-9c0.1-0.2,0.2-0.5,0.4-0.6c0.2-0.2,0.5-0.3,0.7-0.3h3.5c1.5,0,2.7,0.5,3.5,1.4&#xD;&#xA;		c0.8,0.9,1,2.2,0.7,3.7C63.2,42.5,62.5,43.7,61.4,44.6L61.4,44.6z M60.6,40.7c0.1-0.5,0.1-0.9,0.1-1.3c-0.1-0.7-0.3-1.2-0.7-1.6&#xD;&#xA;		c-0.4-0.4-1-0.6-1.6-0.6h-0.9l-1.6,7.4h1c1,0,1.8-0.4,2.5-1.3C59.9,42.6,60.3,41.7,60.6,40.7L60.6,40.7z M67.2,44&#xD;&#xA;		c0.2,0.3,0.5,0.4,1,0.4c0.4,0,0.6,0,0.9-0.1c0.2-0.1,0.4-0.2,0.5-0.3c0.2-0.1,0.3-0.2,0.4-0.3c0.1-0.1,0.3-0.2,0.5-0.2&#xD;&#xA;		c0.2,0,0.4,0.1,0.6,0.2c0.1,0.2,0.2,0.3,0.1,0.6c0,0.2-0.2,0.4-0.4,0.6c-0.2,0.2-0.5,0.4-0.9,0.6c-0.3,0.2-0.7,0.3-1.1,0.4&#xD;&#xA;		c-0.4,0.1-0.8,0.2-1.1,0.2c-0.6,0-1.2-0.1-1.7-0.2c-0.5-0.2-0.9-0.4-1.2-0.7c-0.3-0.3-0.5-0.7-0.6-1.2c-0.1-0.5-0.1-1,0-1.7&#xD;&#xA;		c0.1-0.6,0.3-1.1,0.6-1.6c0.3-0.5,0.7-0.8,1.1-1.2c0.4-0.3,0.9-0.6,1.5-0.7c0.5-0.2,1.1-0.2,1.6-0.2c0.6,0,1.1,0.1,1.6,0.3&#xD;&#xA;		c0.4,0.2,0.8,0.4,1.1,0.8c0.3,0.3,0.4,0.8,0.5,1.3c0.1,0.5,0,1.1-0.2,1.7l-0.1,0.1h-5.1C67,43.3,67,43.7,67.2,44z M70.3,40.9&#xD;&#xA;		c0-0.1-0.1-0.3-0.3-0.4c-0.2-0.2-0.5-0.3-1-0.3c-0.7,0-1.2,0.4-1.6,1.1h2.9C70.3,41.1,70.3,41,70.3,40.9z"/>
	<path id="XMLID_27_" class="st0" d="M58.9,27c0,0-8.2,4.9-11.9,12.1c-4,7.6-3.4,17.5-3.4,17.5s2.6-10.7,5.5-16.5&#xD;&#xA;		C51.9,34.4,58.9,27,58.9,27z"/>
	<path id="XMLID_26_" class="st0" d="M34.5,28.8c0,0,1.8,0.3,4,1.9c2.7,1.9,5.8,5.2,6.7,10.8c-0.1,8.5-7.4,14.1-7.4,14.1&#xD;&#xA;		s5.1-5.7,5-13.4C42.6,34.5,34.5,28.8,34.5,28.8z"/>
	
		<ellipse id="XMLID_25_" transform="matrix(0.19 -0.9818 0.9818 0.19 2.4263 74.2143)" class="st0" cx="46.2" cy="35.6" rx="2.4" ry="1.8"/>
	<path id="XMLID_24_" class="st1" d="M58.9,29.8c0,0,3.7-1,6.3,0c2.6,0.9,4.1,3.8,4.1,3.8s-3.3,0.8-5.9-0.1&#xD;&#xA;		C60.8,32.5,58.9,29.8,58.9,29.8z"/>
	<path id="XMLID_23_" class="st2" d="M55.4,24c0,0,4.5-2.1,8.1-1.4c3.6,0.6,6.2,3.9,6.2,3.9s-4.1,1.8-7.6,1.2&#xD;&#xA;		C58.4,27.1,55.4,24,55.4,24z"/>
	<path id="XMLID_22_" class="st1" d="M49.1,22.1c0,0,2.8-4.2,6.2-5.6c3.5-1.4,7.5,0.1,7.5,0.1s-2.6,3.8-6,5.1&#xD;&#xA;		C53.4,23.1,49.1,22.1,49.1,22.1z"/>
	<path id="XMLID_21_" class="st3" d="M59.1,8.6c0,0-1.9,4.7-5,6.7c-3.1,2-7.3,1.4-7.3,1.4s1.8-4.2,4.8-6.2&#xD;&#xA;		C54.8,8.4,59.1,8.6,59.1,8.6z"/>
	<path id="XMLID_20_" class="st2" d="M42.8,1.9c0,0,3.5,3.8,4,7.5c0.4,3.7-2.2,7.2-2.2,7.2s-3.1-3.5-3.6-7.1&#xD;&#xA;		C40.6,5.7,42.8,1.9,42.8,1.9z"/>
	<path id="XMLID_19_" class="st1" d="M31,9.9c0,0,4.6,0,7.2,2c2.6,1.9,3.3,5.7,3.3,5.7s-4.1-0.1-6.7-2C32.1,13.6,31,9.9,31,9.9z"/>
	<path id="XMLID_18_" class="st3" d="M21.7,19c0,0,4.5-2.8,8.2-2.5c3.8,0.2,6.7,3.5,6.7,3.5s-4.1,2.5-7.7,2.2&#xD;&#xA;		C25.1,21.9,21.7,19,21.7,19z"/>
	<path id="XMLID_17_" class="st1" d="M23.2,31.2c0,0,2.2-4.8,5.4-6.7c3.3-1.9,7.6-0.9,7.6-0.9s-2,4.3-5.1,6.2&#xD;&#xA;		C27.7,31.8,23.2,31.2,23.2,31.2z"/>
	<path id="XMLID_16_" class="st2" d="M37.5,22.7c0,0-0.6,2.5,0.4,4.3c1,1.9,3.4,3,3.4,3s1-3.1,0-5C40.3,23.2,37.5,22.7,37.5,22.7z"/>
	<path id="XMLID_15_" class="st1" d="M42.9,24.9c0,0-0.5-2.1,0.5-3.9c1.1-1.9,3.7-3.4,3.7-3.4s1.1,3.3,0,5.2&#xD;&#xA;		C46.1,24.5,42.9,24.9,42.9,24.9z"/>
	<path id="XMLID_14_" class="st3" d="M47.7,29.9c0,0,0.2-2.2,1.8-3.5c1.9-1.4,5.1-1.9,5.1-1.9s-0.7,3.3-2.5,4.7&#xD;&#xA;		C50.5,30.5,47.7,29.9,47.7,29.9z"/>
</g>
</svg>