<svg width="128" height="21" viewBox="0 0 128 21" fill="none" xmlns="http://www.w3.org/2000/svg">
  <path d="M0 19.9206H5.68363V12.7882H7.02095L11.0608 19.9206H17.0787L12.3145 11.6737C14.4041 10.8658 15.9086 9.27769 15.9086 6.43587V6.32443C15.9086 2.11743 13.011 0 7.80106 0H0V19.9206ZM5.68363 9.08266V4.29058H7.55031C9.38913 4.29058 10.3921 4.93138 10.3921 6.54732V6.65876C10.3921 8.27469 9.44485 9.08266 7.52245 9.08266H5.68363Z" fill="#53B1FD"/>
  <path d="M25.4057 20.2549C29.8077 20.2549 32.343 18.3882 32.7888 15.1006H28.1082C27.9132 16.0757 27.2166 16.828 25.5728 16.828C23.7897 16.828 22.6753 15.7136 22.536 13.7912H32.7888V12.4817C32.7888 7.24384 29.3619 4.95924 25.3778 4.95924C20.9758 4.95924 17.4932 7.9125 17.4932 12.5931V12.816C17.4932 17.5802 20.8365 20.2549 25.4057 20.2549ZM22.5917 10.9772C22.8425 9.22196 23.8733 8.24683 25.3778 8.24683C26.9937 8.24683 27.8574 9.22196 27.941 10.9772H22.5917Z" fill="#53B1FD"/>
  <path d="M40.7721 20.2549C44.8119 20.2549 47.3751 18.6947 47.3751 15.2399C47.3751 12.1195 45.4248 11.0608 41.385 10.5593C39.6019 10.3364 38.9332 10.0578 38.9332 9.36127C38.9332 8.69261 39.4905 8.21897 40.577 8.21897C41.7193 8.21897 42.2487 8.69261 42.4437 9.66774H46.9572C46.6228 6.18512 44.1154 4.95924 40.5213 4.95924C37.1501 4.95924 34.2805 6.51945 34.2805 9.75132C34.2805 12.7882 35.9243 13.9305 39.8248 14.432C41.8308 14.7106 42.5273 15.0449 42.5273 15.7414C42.5273 16.4658 41.9701 16.9394 40.7442 16.9394C39.3233 16.9394 38.8497 16.3544 38.6825 15.2956H34.0854C34.1969 18.5275 36.6208 20.2549 40.7721 20.2549Z" fill="#53B1FD"/>
  <path d="M55.1942 20.2549C56.3644 20.2549 57.3116 20.0041 57.9524 19.837V16.0479C57.5067 16.2151 57.0888 16.2986 56.5315 16.2986C55.5843 16.2986 55.0549 15.825 55.0549 14.7663V8.74833H57.9246V5.3493H55.0549V2.31246H50.0678V5.3493H48.3126V8.74833H50.0678V15.2399C50.0678 18.6668 51.9066 20.2549 55.1942 20.2549Z" fill="#53B1FD"/>
  <path d="M60.2279 19.9206H65.215V13.011C65.215 10.6707 66.8867 9.72346 69.9235 9.80704V5.15427C67.6668 5.12641 66.1344 6.07368 65.215 8.24683V5.3493H60.2279V19.9206Z" fill="#53B1FD"/>
  <path d="M79.1413 20.2549C83.5434 20.2549 86.0787 18.3882 86.5245 15.1006H81.8438C81.6488 16.0757 80.9523 16.828 79.3085 16.828C77.5254 16.828 76.4109 15.7136 76.2716 13.7912H86.5245V12.4817C86.5245 7.24384 83.0976 4.95924 79.1135 4.95924C74.7114 4.95924 71.2288 7.9125 71.2288 12.5931V12.816C71.2288 17.5802 74.5721 20.2549 79.1413 20.2549ZM76.3274 10.9772C76.5781 9.22196 77.609 8.24683 79.1135 8.24683C80.7294 8.24683 81.5931 9.22196 81.6767 10.9772H76.3274Z" fill="#53B1FD"/>
  <path d="M92.8918 20.2549C95.2321 20.2549 96.5137 19.2798 97.2102 18.221V19.9206H102.058V10.4757C102.058 6.60304 99.4948 4.95924 95.4828 4.95924C91.4987 4.95924 88.7405 6.68662 88.5176 10.1971H93.1982C93.3097 9.27769 93.8112 8.46972 95.1764 8.46972C96.7644 8.46972 97.0988 9.38913 97.0988 10.7822V11.1165H95.7057C90.8579 11.1165 87.9604 12.4538 87.9604 15.8807C87.9604 18.9733 90.2728 20.2549 92.8918 20.2549ZM94.6191 16.8837C93.449 16.8837 92.8918 16.3544 92.8918 15.5185C92.8918 14.3205 93.7833 13.9305 95.7893 13.9305H97.0988V14.822C97.0988 16.0757 96.0401 16.8837 94.6191 16.8837Z" fill="#53B1FD"/>
  <path d="M104.903 19.9206H109.89V11.4787C109.89 9.89062 110.782 9.02694 112.119 9.02694C113.262 9.02694 113.986 9.75132 113.986 11.228V19.9206H118.917V11.4787C118.917 9.89062 119.809 9.02694 121.146 9.02694C122.289 9.02694 123.013 9.75132 123.013 11.228V19.9206H128V10.3921C128 6.74234 125.994 4.95924 123.236 4.95924C121.397 4.95924 119.67 5.68363 118.416 7.38314C117.719 5.79507 116.382 4.95924 114.46 4.95924C112.203 4.95924 110.671 6.18512 109.89 7.57817V5.3493H104.903V19.9206Z" fill="#53B1FD"/>
  <mask id="mask0_1336_6825" style="mask-type:alpha" maskUnits="userSpaceOnUse" x="-10" y="12" width="148" height="11">
    <rect width="148" height="10" transform="translate(-10 12.6)" fill="#FAC515"/>
  </mask>
  <g mask="url(#mask0_1336_6825)">
    <path d="M0 19.9206H5.68363V12.7882H7.02095L11.0608 19.9206H17.0787L12.3145 11.6737C14.4041 10.8658 15.9086 9.27769 15.9086 6.43587V6.32443C15.9086 2.11743 13.011 0 7.80106 0H0V19.9206ZM5.68363 9.08266V4.29058H7.55031C9.38913 4.29058 10.3921 4.93138 10.3921 6.54732V6.65876C10.3921 8.27469 9.44485 9.08266 7.52245 9.08266H5.68363Z" fill="#FAC515"/>
    <path d="M25.4057 20.2549C29.8077 20.2549 32.343 18.3882 32.7888 15.1006H28.1082C27.9132 16.0757 27.2166 16.828 25.5728 16.828C23.7897 16.828 22.6753 15.7136 22.536 13.7912H32.7888V12.4817C32.7888 7.24384 29.3619 4.95924 25.3778 4.95924C20.9758 4.95924 17.4932 7.9125 17.4932 12.5931V12.816C17.4932 17.5802 20.8365 20.2549 25.4057 20.2549ZM22.5917 10.9772C22.8425 9.22196 23.8733 8.24683 25.3778 8.24683C26.9937 8.24683 27.8574 9.22196 27.941 10.9772H22.5917Z" fill="#FAC515"/>
    <path d="M40.7721 20.2549C44.8119 20.2549 47.3751 18.6947 47.3751 15.2399C47.3751 12.1195 45.4248 11.0608 41.385 10.5593C39.6019 10.3364 38.9332 10.0578 38.9332 9.36127C38.9332 8.69261 39.4905 8.21897 40.577 8.21897C41.7193 8.21897 42.2487 8.69261 42.4437 9.66774H46.9572C46.6228 6.18512 44.1154 4.95924 40.5213 4.95924C37.1501 4.95924 34.2805 6.51945 34.2805 9.75132C34.2805 12.7882 35.9243 13.9305 39.8248 14.432C41.8308 14.7106 42.5273 15.0449 42.5273 15.7414C42.5273 16.4658 41.9701 16.9394 40.7442 16.9394C39.3233 16.9394 38.8497 16.3544 38.6825 15.2956H34.0854C34.1969 18.5275 36.6208 20.2549 40.7721 20.2549Z" fill="#FAC515"/>
    <path d="M55.1942 20.2549C56.3644 20.2549 57.3116 20.0041 57.9524 19.837V16.0479C57.5067 16.2151 57.0888 16.2986 56.5315 16.2986C55.5843 16.2986 55.0549 15.825 55.0549 14.7663V8.74833H57.9246V5.3493H55.0549V2.31246H50.0678V5.3493H48.3126V8.74833H50.0678V15.2399C50.0678 18.6668 51.9066 20.2549 55.1942 20.2549Z" fill="#FAC515"/>
    <path d="M60.2279 19.9206H65.215V13.011C65.215 10.6707 66.8867 9.72346 69.9235 9.80704V5.15427C67.6668 5.12641 66.1344 6.07368 65.215 8.24683V5.3493H60.2279V19.9206Z" fill="#FAC515"/>
    <path d="M79.1413 20.2549C83.5434 20.2549 86.0787 18.3882 86.5245 15.1006H81.8438C81.6488 16.0757 80.9523 16.828 79.3085 16.828C77.5254 16.828 76.4109 15.7136 76.2716 13.7912H86.5245V12.4817C86.5245 7.24384 83.0976 4.95924 79.1135 4.95924C74.7114 4.95924 71.2288 7.9125 71.2288 12.5931V12.816C71.2288 17.5802 74.5721 20.2549 79.1413 20.2549ZM76.3274 10.9772C76.5781 9.22196 77.609 8.24683 79.1135 8.24683C80.7294 8.24683 81.5931 9.22196 81.6767 10.9772H76.3274Z" fill="#FAC515"/>
    <path d="M92.8918 20.2549C95.2321 20.2549 96.5137 19.2798 97.2102 18.221V19.9206H102.058V10.4757C102.058 6.60304 99.4948 4.95924 95.4828 4.95924C91.4987 4.95924 88.7405 6.68662 88.5176 10.1971H93.1982C93.3097 9.27769 93.8112 8.46972 95.1764 8.46972C96.7644 8.46972 97.0988 9.38913 97.0988 10.7822V11.1165H95.7057C90.8579 11.1165 87.9604 12.4538 87.9604 15.8807C87.9604 18.9733 90.2728 20.2549 92.8918 20.2549ZM94.6191 16.8837C93.449 16.8837 92.8918 16.3544 92.8918 15.5185C92.8918 14.3205 93.7833 13.9305 95.7893 13.9305H97.0988V14.822C97.0988 16.0757 96.0401 16.8837 94.6191 16.8837Z" fill="#FAC515"/>
    <path d="M104.903 19.9206H109.89V11.4787C109.89 9.89062 110.782 9.02694 112.119 9.02694C113.262 9.02694 113.986 9.75132 113.986 11.228V19.9206H118.917V11.4787C118.917 9.89062 119.809 9.02694 121.146 9.02694C122.289 9.02694 123.013 9.75132 123.013 11.228V19.9206H128V10.3921C128 6.74234 125.994 4.95924 123.236 4.95924C121.397 4.95924 119.67 5.68363 118.416 7.38314C117.719 5.79507 116.382 4.95924 114.46 4.95924C112.203 4.95924 110.671 6.18512 109.89 7.57817V5.3493H104.903V19.9206Z" fill="#FAC515"/>
  </g>
</svg>
