<?xml version="1.0" encoding="utf-8"?>
<!-- Generator: Adobe Illustrator 24.2.1, SVG Export Plug-In . SVG Version: 6.00 Build 0)  -->
<svg version="1.1" id="Layer_1" xmlns="http://www.w3.org/2000/svg" xmlns:xlink="http://www.w3.org/1999/xlink" x="0px" y="0px"
	 viewBox="0 0 260 100" style="enable-background:new 0 0 260 100;" xml:space="preserve">
<style type="text/css">
	.st0{fill:url(#SVGID_1_);}
	.st1{fill:url(#SVGID_2_);}
	.st2{fill:url(#SVGID_3_);}
	.st3{fill:url(#SVGID_4_);}
	.st4{fill:#FFFFFF;}
</style>
<g>
	<linearGradient id="SVGID_1_" gradientUnits="userSpaceOnUse" x1="20.7534" y1="88.6096" x2="100.264" y2="5.453">
		<stop  offset="0" style="stop-color:#F4F4F4"/>
		<stop  offset="0.401" style="stop-color:#FCFCFC"/>
		<stop  offset="0.9981" style="stop-color:#FFFFFF"/>
	</linearGradient>
	<path class="st0" d="M52.83,49.23C30.27,79.3,2.5,76.62,2.5,76.62c38.86,17.97,64.09-5.22,64.09-5.22
		c7.08-6.01,12.94-15.19,16.37-21.28L68.56,27.67C62.57,35.95,52.83,49.23,52.83,49.23z"/>
	<linearGradient id="SVGID_2_" gradientUnits="userSpaceOnUse" x1="23.5818" y1="91.314" x2="103.0925" y2="8.1574">
		<stop  offset="0" style="stop-color:#F4F4F4"/>
		<stop  offset="0.401" style="stop-color:#FCFCFC"/>
		<stop  offset="0.9981" style="stop-color:#FFFFFF"/>
	</linearGradient>
	<path class="st1" d="M72.18,22.65l13.81,21.69c0.14-0.3,0.22-0.46,0.22-0.46c16.05-37,31.34-33.13,31.34-33.13
		C90.95-1.72,74.31,19.68,72.18,22.65z"/>
</g>
<g>
	<linearGradient id="SVGID_3_" gradientUnits="userSpaceOnUse" x1="44.2198" y1="55.6702" x2="103.4633" y2="21.4659">
		<stop  offset="0" style="stop-color:#FFFFFF"/>
		<stop  offset="1" style="stop-color:#D1D3D4"/>
	</linearGradient>
	<path class="st2" d="M101.82,18.1l0.01-0.01c-9.42,4.72-18.83,7.02-27.53,7.9L85.77,44c0.03-0.07,0.06-0.12,0.06-0.12
		C91.46,30.89,97,22.95,101.82,18.1z"/>
	<linearGradient id="SVGID_4_" gradientUnits="userSpaceOnUse" x1="58.3599" y1="88.5033" x2="58.3599" y2="-41.915">
		<stop  offset="0" style="stop-color:#BCBEC0"/>
		<stop  offset="0.0875" style="stop-color:#C9CBCC"/>
		<stop  offset="0.2821" style="stop-color:#E1E2E3"/>
		<stop  offset="0.4894" style="stop-color:#F2F2F3"/>
		<stop  offset="0.716" style="stop-color:#FCFCFC"/>
		<stop  offset="0.9981" style="stop-color:#FFFFFF"/>
	</linearGradient>
	<path class="st3" d="M33.97,20.82l18.36,28.55L66.4,71.23c7.12-6.12,12.99-15.41,16.35-21.43l-15-23.41
		C48.35,26.86,33.97,20.82,33.97,20.82z"/>
</g>
<g>
	<path class="st4" d="M107.73,50.9c-2.49-1.49-7.13-4.31-7.13-9.7c0-4.56,2.9-8.71,6.88-11.77c4.23-3.15,10.36-3.73,13.68-3.73
		c2.32,0,3.98,0.17,5.56,0.58h-0.08c2.4,0.5,3.57,2.82,2.74,4.64c-0.91,1.99-3.57,2.4-5.72,1.33c-1.24-0.58-2.74-0.99-4.48-0.99
		c-5.8,0-8.95,4.06-8.95,7.38c0,3.81,2.82,5.47,5.8,7.13l4.23,2.57c2.49,1.49,6.3,3.9,6.3,8.87c0,3.57-1.74,8.37-6.72,12.02
		c-4.97,3.57-10.78,3.81-14.43,3.81c-2.24,0-4.48-0.25-6.05-0.58c-2.57-0.66-4.15-3.15-3.48-5.39c0.75-1.91,3.4-2.57,5.47-1.49
		c1.58,0.75,3.65,1.33,6.8,1.33c5.97,0,9.2-3.65,9.2-7.05c0-3.15-2.16-4.64-4.48-5.97L107.73,50.9z"/>
	<path class="st4" d="M142.39,51.65c-1.49,8.29-2.16,13.18-2.4,16.09c-0.17,2.32-2.74,3.9-5.47,3.9h-0.66
		c-2.4,0.08-4.15-2.16-3.73-4.15c0-0.08,0.08-0.33,0.08-0.41c0.41-1.74,1-4.15,1.58-7.55l1.49-8.13c1.99-11.03,2.74-16.5,2.65-19.48
		c-0.08-1.91,0.66-4.23,3.23-4.39c1.16-0.17,2.07-0.33,2.98-0.5c2.49-0.58,4.56,1.41,4.15,3.48c-0.08,0.41-0.17,0.83-0.25,1.33
		c-0.33,1.49-0.75,3.48-1.24,6.3L142.39,51.65z M149.11,15c0,2.65-2.24,6.88-6.55,6.88c-2.4,0-4.89-1.33-4.89-4.31
		c0-2.49,2.07-6.63,6.63-6.63C146.87,10.94,149.11,12.27,149.11,15z"/>
	<path class="st4" d="M191.23,39.46c0,8.54-3.9,19.57-10.28,25.95c-4.39,4.39-10.45,7.21-17.08,7.21c-1.74,0-3.81-0.08-6.96-0.75
		c-0.58,3.4-1.33,6.88-1.91,10.28c-0.5,2.9-0.75,4.98-0.91,6.55c-0.25,2.49-2.32,4.56-5.31,4.39h-0.66c-2.4,0-4.64-1.74-4.23-3.65
		c0.91-3.23,1.74-7.71,2.57-11.69c0.08-0.5,0.25-1.08,0.33-1.58l5.22-27.11c0.58-3.23,0.83-5.22,1.41-8.62
		c0.25-0.5,0.25-0.91,0.25-1.08c0.66-3.4,0.75-6.22,0.66-7.96c0.08-1.58,0.91-3.65,2.9-3.9c1.16-0.08,2.16-0.25,2.99-0.41
		c2.49-0.41,4.73,1.24,4.56,3.23c-0.5,2.32-0.99,4.81-1.49,7.21c1.66-3.07,3.9-6.8,6.88-8.95c0.99-0.75,3.98-2.82,9.29-2.82
		C186.58,25.78,191.23,30.51,191.23,39.46z M161.87,47.92c-1.49,4.89-2.82,12.19-3.48,15.84c-0.17,0.41-0.25,0.75-0.25,1.33h-0.41
		c1.74,0.91,3.81,2.07,7.13,2.07c5.64,0,8.62-3.07,10.12-4.89c4.73-5.56,6.14-15.42,6.14-20.4c0-4.81-1.82-9.04-6.38-9.04
		C169.83,32.83,164.78,38.47,161.87,47.92z"/>
	<path class="st4" d="M204.08,72.3c-8.62-0.08-9.45-5.64-9.2-9.87c0.08-1.74,0.41-3.65,0.66-5.14c0.17-0.91,0.25-1.74,0.25-2.07
		c0.17-0.99,0.33-1.66,0.41-2.24c0.33-1.91,0.58-3.15,3.15-17.91c1.58-9.04,2.32-14.51,2.24-17.25c-0.08-1.91,0.91-4.15,3.32-4.39
		c0.91-0.08,1.66-0.25,2.65-0.5c2.32-0.58,4.64,1.24,4.48,3.32c-0.41,2.07-0.91,4.56-1.58,8.13c-0.33,1.74-0.75,3.73-1.16,6.05
		c-1.24,7.38-2.57,15.01-3.81,22.39c-0.17,1.08-0.33,2.49-0.58,3.65c-0.5,3.07-1.08,6.14-0.41,8.04c0,0,0.58,2.32,2.4,2.4
		c1.49,0,2.16-0.17,3.32-0.58c0.08,0,0.58-0.17,0.83-0.25c1.74-0.58,3.15,0.91,2.57,2.4c-0.75,1.91-2.9,3.23-5.39,3.57
		C206.98,72.21,205.49,72.3,204.08,72.3z"/>
	<path class="st4" d="M230.28,72.38h0.58c-2.82-0.5-5.56-1.99-5.8-4.39c-0.83-9.62-1.49-14.01-3.4-24.79
		c-1.08-6.3-1.99-10.03-2.65-12.35h0.08c-0.66-2.07,1.33-3.9,3.65-3.81h1.74c3.07-0.08,5.31,2.07,5.56,4.56
		c0.08,1.82,0.33,4.39,0.83,8.04l3.4,24.46c0.99-2.24,1.91-4.31,2.82-6.55c5.97-14.01,8.79-21.56,10.12-26.04
		c0.83-2.74,3.32-4.81,6.63-4.56h0.66c2.16,0,3.65,1.99,2.74,3.57c-0.25,0.41-0.41,0.75-0.66,1.24c-2.07,3.73-4.23,8.71-5.64,12.02
		l-13.52,29.68c-4.64,8.87-9.95,17.83-21.89,19.65c-2.4,0-4.73-1.99-4.23-4.06c0.75-2.16,3.4-3.32,6.05-3.48
		c5.47-0.33,9.04-6.14,10.78-9.2L230.28,72.38z"/>
</g>
</svg>
