<svg xmlns="http://www.w3.org/2000/svg" version="1.1" xmlns:xlink="http://www.w3.org/1999/xlink" xmlns:svgjs="http://svgjs.dev/svgjs" viewBox="0 0 2400 800" opacity="0.67"><defs><linearGradient x1="50%" y1="0%" x2="50%" y2="100%" id="sssurf-grad"><stop stop-color="hsl(208, 77%, 50%)" stop-opacity="1" offset="0%"></stop><stop stop-color="hsl(208, 74%, 93%)" stop-opacity="1" offset="100%"></stop></linearGradient></defs><g fill="url(#sssurf-grad)" transform="matrix(1,0,0,1,7.6488037109375,253.56012725830078)"><path d="M-10,10C54.58333333333333,12.5,172.91666666666666,26.166666666666668,300,22C427.08333333333337,17.833333333333332,475,-14.375,600,-10C725,-5.625,775,45.5,900,43C1025,40.5,1075,-17.416666666666668,1200,-22C1325,-26.583333333333332,1375,19.958333333333332,1500,21C1625,22.041666666666668,1675,-22.625,1800,-17C1925,-11.375,1975,44.458333333333336,2100,48C2225,51.541666666666664,2285.4166666666665,-73.33333333333333,2400,0C2514.5833333333335,73.33333333333333,3254.1666666666665,212.5,2650,400C2045.8333333333335,587.5,156.25,795.8333333333334,-500,900" transform="matrix(1,0,0,1,0,54)" opacity="0.05"></path><path d="M-10,10C54.58333333333333,12.5,172.91666666666666,26.166666666666668,300,22C427.08333333333337,17.833333333333332,475,-14.375,600,-10C725,-5.625,775,45.5,900,43C1025,40.5,1075,-17.416666666666668,1200,-22C1325,-26.583333333333332,1375,19.958333333333332,1500,21C1625,22.041666666666668,1675,-22.625,1800,-17C1925,-11.375,1975,44.458333333333336,2100,48C2225,51.541666666666664,2285.4166666666665,-73.33333333333333,2400,0C2514.5833333333335,73.33333333333333,3254.1666666666665,212.5,2650,400C2045.8333333333335,587.5,156.25,795.8333333333334,-500,900" transform="matrix(1,0,0,1,0,108)" opacity="0.53"></path><path d="M-10,10C54.58333333333333,12.5,172.91666666666666,26.166666666666668,300,22C427.08333333333337,17.833333333333332,475,-14.375,600,-10C725,-5.625,775,45.5,900,43C1025,40.5,1075,-17.416666666666668,1200,-22C1325,-26.583333333333332,1375,19.958333333333332,1500,21C1625,22.041666666666668,1675,-22.625,1800,-17C1925,-11.375,1975,44.458333333333336,2100,48C2225,51.541666666666664,2285.4166666666665,-73.33333333333333,2400,0C2514.5833333333335,73.33333333333333,3254.1666666666665,212.5,2650,400C2045.8333333333335,587.5,156.25,795.8333333333334,-500,900" transform="matrix(1,0,0,1,0,162)" opacity="1.00"></path></g></svg>