<svg xmlns="http://www.w3.org/2000/svg" version="1.1" xmlns:xlink="http://www.w3.org/1999/xlink" xmlns:svgjs="http://svgjs.dev/svgjs" viewBox="0 0 2400 800" opacity="0.29"><defs><linearGradient x1="50%" y1="0%" x2="50%" y2="100%" id="sssurf-grad"><stop stop-color="hsl(208, 77%, 50%)" stop-opacity="1" offset="0%"></stop><stop stop-color="hsl(208, 74%, 93%)" stop-opacity="1" offset="100%"></stop></linearGradient></defs><g fill="url(#sssurf-grad)" transform="matrix(1,0,0,1,4.3314208984375,253.5800323486328)"><path d="M-10,10C92.08333333333334,12.083333333333334,277.9166666666667,24.166666666666668,480,20C682.0833333333333,15.833333333333332,760,-10,960,-10C1160,-10,1240,20,1440,20C1640,20,1720,-11.458333333333334,1920,-10C2120,-8.541666666666666,2247.9166666666665,-58.41666666666666,2400,27C2552.0833333333335,112.41666666666666,3254.1666666666665,218.125,2650,400C2045.8333333333335,581.875,156.25,795.8333333333334,-500,900" transform="matrix(1,0,0,1,0,54)" opacity="0.05"></path><path d="M-10,10C92.08333333333334,12.083333333333334,277.9166666666667,24.166666666666668,480,20C682.0833333333333,15.833333333333332,760,-10,960,-10C1160,-10,1240,20,1440,20C1640,20,1720,-11.458333333333334,1920,-10C2120,-8.541666666666666,2247.9166666666665,-58.41666666666666,2400,27C2552.0833333333335,112.41666666666666,3254.1666666666665,218.125,2650,400C2045.8333333333335,581.875,156.25,795.8333333333334,-500,900" transform="matrix(1,0,0,1,0,108)" opacity="0.53"></path><path d="M-10,10C92.08333333333334,12.083333333333334,277.9166666666667,24.166666666666668,480,20C682.0833333333333,15.833333333333332,760,-10,960,-10C1160,-10,1240,20,1440,20C1640,20,1720,-11.458333333333334,1920,-10C2120,-8.541666666666666,2247.9166666666665,-58.41666666666666,2400,27C2552.0833333333335,112.41666666666666,3254.1666666666665,218.125,2650,400C2045.8333333333335,581.875,156.25,795.8333333333334,-500,900" transform="matrix(1,0,0,1,0,162)" opacity="1.00"></path></g></svg>